<?xml version="1.0" encoding="utf-8"?>
<!-- Generator: Adobe Illustrator 21.0.0, SVG Export Plug-In . SVG Version: 6.00 Build 0)  -->
<svg version="1.1" id="Layer_1" xmlns="http://www.w3.org/2000/svg" xmlns:xlink="http://www.w3.org/1999/xlink" x="0px" y="0px"
	 viewBox="0 0 1518.2 615.1" style="enable-background:new 0 0 1518.2 615.1;" xml:space="preserve">
<style type="text/css">
	.st0{fill:#FFFFFF;}
</style>
<path class="st0" d="M21,22.2v480.6h480.6V22.2H21z M380.5,381.7H140.2V141.4h240.3V381.7z"/>
<path class="st0" d="M711.9,146.5l14.5,2.5c4-0.3,9.2,2.8,15.7,9.5c6.5,6.7,11.4,13.5,14.7,20.5c9.3,14.3,6,33.3-10,57
	c-3.7,4.3-13.9,15.7-30.7,34.2c-16.8,18.5-26.9,29.1-30.2,31.7c-6,3-16.1,12.9-30.2,29.7c-14.2,16.8-20.7,25.2-19.7,25.2
	c-0.3,1.3,0,1.9,1,1.8c1-0.2,4.8-1.3,11.5-3.5c6.7-2.2,20.2-4.6,40.5-7.2c20.3-2.7,31.6-3.2,34-1.5l2.5,1c1.3-2,5.5-2.7,12.5-2
	c7,0.7,14.3,2.2,22,4.5c7.7,2.3,11.7,4.4,12.2,6.2c0.5,1.8,2.1,4.3,4.7,7.2c7.7,6.7,5.8,9.8-5.5,9.5c-4.7-0.3-10.8-1.2-18.5-2.5
	c-8.7,0-14.5,0.3-17.5,0.8c-3,0.5-11.3,1.3-25,2.2c-9.7-1.3-20.5,0.2-32.5,4.5c-12,4.3-26.3,8.7-43,13c-16.7,4.3-26.3,6-29,5
	c-2.7-1-6.2-3.3-10.5-7c-4.3-3.7-7.1-6.6-8.2-8.7c-1.2-2.2-1.2-5.5,0-10c1.2-4.5,2.4-6.7,3.8-6.7c1,1,3.7-1.6,8.2-7.7
	c4.5-6.2,6.9-10.1,7.2-11.7c0.3-1,2.7-3,7-6c0-0.3,2.6-3.5,7.7-9.5c5.2-6,9.7-10.8,13.7-14.5c34.6-33.3,52.6-53.1,54-59.5
	c1.7-2,4.3-4.2,8-6.5c3.7-2.3,7.7-5.7,12-10c1.3-6.7,6.5-14.5,15.5-23.5c5.7-8.3,9.3-15.3,11-21c1.7-5.7,2-8.9,1-9.7
	c-1-0.8-5.2-2.4-12.5-4.7c-19.7-6.7-39-3.3-58,10c-2.3,0.7-5.2,1.5-8.5,2.5c-7.3,2.7-11.7,3.8-13,3.5c-1.3-0.3-2.5-1.1-3.5-2.3
	c-1-1.2-2.3-2.7-3.8-4.5c-1.5-1.8-2.7-3.2-3.7-4.2l-5-10.5l15.5-8.5C671.6,147,694.2,140.8,711.9,146.5z"/>
<path class="st0" d="M991.6,140.5c-0.5,1.5-2.5,5-4,9c-1.5,0-3-1-4.5-2.5l-4,4.5h0.5c0-0.5,0-1,0.5-1.5v-0.5c0-0.5,0-0.5-0.5-1
	c-4,1.5-6,3.5-8.5,6c0-2,0-3.5-0.5-5c-3.5-1.5-8.5-7-12-11l-1-3.5c0.5-2,0-6,1.5-8.5h-1c-1,0-1.5-0.5-1.5-1.5c0-2.5-0.5-7,1-10.5
	c0.5-0.5,1.5,0.5,2-1l1.5-2.5c-0.5-1.5,0.5,1,0.5-2.5c0-9-6-31.5-12.5-36.5c-4.5-4-15-10-17.5-10c-3.5,0,0.5,1-3,1c-3.5,0-3-2.5-5-3
	c-0.5-0.5-2-0.5-5-0.5c-5,0-27.5,16-29,18.5c-4,6.5-8.5,15.5-10,23c-1.5,3-2,6-2,9.5c0,3.5,0,15.5,2,23c0,2.5,4,6.5,4.5,10.5
	c2,7.5,0.5,18.5,6.5,26.5l11.5,36c0,1.5,2,3.5,3.5,6c8,23,12,39,24,68.4c6.5,12,13,49.9,13,68.4c0,2-1.5,16-4,24c-0.5,2,1.5,4.5,0,7
	c-1.5,6.5-8,15.5-16,21c-1.5,1.5-4.5,5.5-8,8c-0.5,0-2.5,0-4,0.5c-7.5,4-19.5,6.5-27,6.5h-11c-3.5,0-22.5-8.5-26-8.5
	c-3.5,0,1,1.5-2.5,1.5c-2,0-7-5.5-8.5-8c-4-4-17-9-24.5-17.5c-6.5-7.5-19.5-24-21.5-34c-2.5-4-4.5-10.5-8.5-16.5c0-1.5,3-3,1.5-4.5
	c-0.5-1-1.5-2-3-3.5c2-4-0.5-12.5-0.5-17c0-2.5-3-3-3-6.5c0-3.5,1.5-3,1.5-5c1.5,0,1,2,3.5,3.5c0-4.5-2-9.5,0-16c0.5,0,1.5,1.5,3,4
	c2-5.5,0-11.5-2-17c2,0-0.5-2.5,3-2.5c3.5,0,1,1,3,1c0-3.5,2-6,2-10c0,3.5-2,6.5-0.5,10.5c0.5,2,1.5,1,2,1.5c2,1.5-0.5,10,5,10.5
	c0.5,3.5,1.5,7,3,11l2.5-2.5c0,13.5,7,35.5,12.5,41c3.5,3.5,7.5,15,11,15c2.5,0,0.5-1,0.5-2.5c4,9.5,36.5,21,50.9,21
	c2.5,0,4.5-0.5,6-1l2.5,2c1.5-1.5,7.5-3,10-4.5c4-2.5,9.5-8,11.5-14c1.5-4,1-8.5,1-12.5c0-3.5-1-2-1-2.5c0.5-4,1.5-9.5,0-13.5
	c-8-26.5-23-69.4-37.5-99.9c0-2.5-28.5-84.9-28.5-108.9c0-0.5,0-4.5,0.5-11c0.5-6.5,1.5-12,2.5-16.5c1.5-8.5,8.5-23,15-34.5
	c0-1.5-1.5-1-1.5-3c4-1.5,8-7,10.5-7c3.5,0-1,2.5,1.5,2.5c3.5,0,13-11.5,17.5-11.5c10.5-0.5,28-2,31.5-2c2,0,18.5,7,25,8.5
	c4,2,11.5,7.5,17.5,8c22.5,2.5,33.5,58.9,33.5,77.9C994.6,124,993.1,135,991.6,140.5z"/>
<path class="st0" d="M1229.9,490.2c-2,1.5-6,5-10,6.5c-2,1.5,1,1.5,1,3c-2.5,0-6.5,0-8,2c1.5,2,4-0.5,6.5,1.5c-2.5,2.5-5.5,7.5-8,8
	c-10.5,4-29,12.5-32,12.5c-11,0.5-43,9-56.5,11.5c-8.5,2.5-22,7.5-34.5,11c-6.5,9-2.5,40-14.5,53.5c-2.5-2-4.5-6.5-6.5-10
	c-2-1.5-4,3.5-6,6c-2-2.5-6-6.5-10-7l-1.5-25l-1.5-3c-10-0.5-13,4-15,4c-5.5,0.5-12.5-1-21-4.5c-8.5-3.5-14-7.5-17.5-12.5
	c-1.5-0.5-0.5-3.5-4-5.5c5.5-5.5,10-15,18-25c4.5-0.5,8.5-1,12-2.5c4.5-2.5,10-4.5,15.5-8c7.5-2.5,12-1.5,18.5-7c8-13-3-31,8-43
	c0-2,1.5-1-1-3h-0.5c-0.5,0.5-1,1-0.5,2c4-8.5,2.5-21.5,7-29c-1.5-1.5-3-1.5-3.5-0.5c-0.5-2,1.5-5.5,3.5-6c2-1.5-0.5-1.5-0.5-2
	l15.5-79.9h-1.5c-29.5,23-35,49-60.9,50.4c-2.5,0-9.5-3.5-12-3.5c-3.5,0-5,1-6.5,1c-11-17.5-13.5-13.5-15-28c0-1.5,1.5-5.5,4-12.5
	l7-17c13-28,42.5-68.4,65.9-91.9c6.5-8,17.5-20,29.5-30.5l-3.5,4.5c11,0,19-16.5,24-17.5c3.5,0,15,10,22.5,16c-2.5,1.5-3,4-1.5,7.5
	c2,3,1,5.5-3,7c2.5,4,9.5,9,17,10.5c1.5-2-0.5-2.5,1.5-4.5c0.5,5.5,7.5,15.5,7.5,19.5c1.5,11-16.5,53.4-17.5,60.4
	c-3.5,18-11.5,34-16,50c-12,42-28.5,126.4-28,129.9c0.5,6,4,3.5,6,3.5c2,0,57.9-12.5,60.4-12.5c3.5,0,4,2,7.5,2c2.5,0,7-3,11-3
	c6-1.5,13-2.5,21.5-4c8.5-1.5,13.5-2,15-2c2.5,0,10,3,15.5,5.5C1228.9,486.7,1224.4,485.7,1229.9,490.2z M1053.6,314.8
	c16.5-12.5,35.5-45,47-58.9C1083.1,271.9,1057.6,304.3,1053.6,314.8z M1062.6,465.2l-0.5-4.5l-2,0.5l0.5,4.5L1062.6,465.2z"/>
<path class="st0" d="M1340.9,266.9c-5.5,0-11.5-2-21,0c-0.5-3.5-1-8-2.5-14.5c-20,7.5-36.5,31-49,50.5c0-1.5-0.5-2.5-2-2.5
	c-1.5,3-2,5-1,6c-0.5,0-1,0-1.5,0.5c-1,1.5-1.5,2-1.5,2c-0.5,1.5,1.5,2,1.5,4c-1.5,0-1.5,1-3.5,1h-0.5c-1,0-1.5,0.5-1.5,1
	c-1.5,2,2,3,2,3.5c-3,5.5-7,12-12,18.5c0,2,1.5,3,1,3.5c-2,4.5-5,7-8.5,10.5c-2.5,3.5-2,8.5-4,12.5c-6.5,13.5-13,30-8.5,44
	c-3,2-6,3-9.5,3c-2,0-9.5-3.5-14-5.5c-2-2,0-8.5-5.5-7c-3.5-10.5-8.5-18-8.5-26c0-3,8-30.5,9-44c4.5-18.5,8-37,9.5-56.5
	c1.5-11.5,3.5-26.5,5-41c1.5-9.5,2-20.5,4.5-30h6c5.5,0,15.5,7.5,18,14c2.5,7.5,4.5,14.5,5,22c0.5,5.5-1.5,10-1.5,17.5
	c5-12.5,32.5-33.5,48.5-33.5c14.5,0,36.5,8.5,48,22.5c2,2.5,3,7,5.5,11C1346.4,258.4,1338.9,262.4,1340.9,266.9z"/>
<path class="st0" d="M1488.2,214.4c1.5,10,0.5,27.5-4,37c-2,2-7,3.5-10.5,3.5c-2.5,0-10.5-3.5-15-8c-2.5,1-3.5,2.5-4,4.5
	c-4.5,37.5-0.5,76.4-7,114.4c-2.5,18.5-8,65.4-37.5,65.4c-4,0-3-1.5-5-2c-1.5-1.5,0,0.5-4,0.5c-9,0-21-14-23-14
	c-16-9.5-38.5-48-38.5-68.4c0-6,4.5-22,10.5-30.5c1.5,0,3-0.5,4-1c0.5,2.5-1.5,6.5-2,10c1.5,2,2.5,1.5,4.5,3.5c2,0,0.5,3.5,0.5,8
	c2.5,2.5,4.5,1.5,0,6c2,3.5,2.5,6.5,2,9c2,4,7.5,8,5,13.5l2,2c1.5-2,3.5-3,5.5-3c5.5,9.5,5.5,22.5,15.5,29c6-5.5,10-14,12.5-21.5
	c12-28.5,9.5-79.9,9.5-102.4c0-7.5,3.5-17,3.5-25c0-2.5-1.5-5.5-1.5-8c0-6.5,1.5-12.5,3-23c0-6,1.5-50.4,14-50.4c4,0,3.5,0.5,5.5,2
	c8-1,16.5,1.5,26,7.5c9.5,5.5,17,11,22,16c0.5,2,0.5,3.5,0.5,5.5c4,2.5,8,10.5,8,14C1490.2,211.9,1489.7,212.9,1488.2,214.4z
	 M1370.9,363.8h-2v-7.5h2V363.8z"/>
</svg>
