<?xml version="1.0" encoding="UTF-8" standalone="no"?>
<svg width="164px" height="165px" viewBox="0 0 164 165" version="1.1" xmlns="http://www.w3.org/2000/svg" xmlns:xlink="http://www.w3.org/1999/xlink">
    <!-- Generator: Sketch 41.2 (35397) - http://www.bohemiancoding.com/sketch -->
    <title>hightech</title>
    <desc>Created with Sketch.</desc>
    <defs>
        <polygon id="path-1" points="0.024 0.159211679 0.024 163.599776 141.9936 163.599776 141.9936 0.159211679 0.024 0.159211679"></polygon>
        <rect id="path-3" x="118" y="52" width="30" height="30"></rect>
        <mask id="mask-4" maskContentUnits="userSpaceOnUse" maskUnits="objectBoundingBox" x="0" y="0" width="30" height="30" fill="white">
            <use xlink:href="#path-3"></use>
        </mask>
    </defs>
    <g id="Page-1" stroke="none" stroke-width="1" fill="none" fill-rule="evenodd">
        <g id="2sqrs-Home---Desktop-Copy" transform="translate(-172.000000, -957.000000)">
            <g id="hightech" transform="translate(172.000000, 957.000000)">
                <path d="M161.1908,32.8482822 C162.7016,32.8482822 163.922,31.6276594 163.922,30.1237275 C163.922,28.6193966 162.7016,27.3991727 161.1908,27.3991727 L161.164,27.3991727 C159.6564,27.3991727 158.4468,28.6193966 158.4468,30.1237275 C158.4468,31.6276594 159.6844,32.8482822 161.1908,32.8482822 Z" id="Fill-2" fill="#000000"></path>
                <g id="Group-6">
                    <mask id="mask-2" fill="white">
                        <use xlink:href="#path-1"></use>
                    </mask>
                    <g id="Clip-4"></g>
                    <path d="M128.342,11.0546375 L131.072,11.0546375 L131.072,13.7791922 C131.072,15.2835231 132.2952,16.503747 133.8032,16.503747 C135.3092,16.503747 136.5328,15.2835231 136.5328,13.7791922 L136.5328,11.0546375 L139.264,11.0546375 C140.7704,11.0546375 141.9936,9.8340146 141.9936,8.33167883 C141.9936,6.82734793 140.7704,5.60712409 139.264,5.60712409 L136.5328,5.60712409 L136.5328,2.88376642 C136.5328,1.37983455 135.3092,0.159211679 133.8032,0.159211679 C132.2952,0.159211679 131.072,1.37983455 131.072,2.88376642 L131.072,5.60712409 L128.342,5.60712409 C126.8344,5.60712409 125.6108,6.82734793 125.6108,8.33167883 C125.6108,9.8340146 126.8344,11.0546375 128.342,11.0546375 Z" id="Fill-3" fill="#000000" mask="url(#mask-2)"></path>
                    <path d="M68.2672,43.743708 L68.214,43.743708 C71.658,39.1828321 73.728,33.5342092 73.728,27.3991727 C73.728,12.3794063 61.478,0.159211679 46.422,0.159211679 C31.364,0.159211679 19.114,12.3794063 19.114,27.3991727 C19.114,33.5342092 21.1844,39.1828321 24.628,43.743708 L24.5764,43.743708 C11.0264,43.743708 0,54.7432798 0,68.2603114 L0,109.120253 C0,113.626462 3.6752,117.292321 8.192,117.292321 L16.3844,117.292321 L16.3844,160.876818 C16.3844,162.379153 17.608,163.599776 19.114,163.599776 L40.9592,163.599776 C42.4672,163.599776 43.6908,162.379153 43.6908,160.876818 L43.6908,111.877528 C43.7236,110.6182 44.2236,109.120253 46.422,109.120253 C48.6188,109.120253 49.1188,110.6182 49.1516,111.844808 L49.1516,160.876818 C49.1516,162.379153 50.3752,163.599776 51.8828,163.599776 L73.728,163.599776 C75.236,163.599776 76.458,162.379153 76.458,160.876818 L76.458,117.292321 L84.65,117.292321 C89.1672,117.292321 92.842,113.626462 92.842,109.120253 L92.842,68.2603114 C92.842,54.7432798 81.8156,43.743708 68.2672,43.743708 Z M46.422,5.60712409 C54.5592,5.60712409 61.658,10.0774209 65.4156,16.6753285 C61.2376,15.2132944 54.9624,13.7791922 46.422,13.7791922 C37.9264,13.7791922 31.6516,15.1961363 27.4436,16.6501898 C31.2064,10.0662482 38.2952,5.60712409 46.422,5.60712409 Z M24.5764,27.3991727 C24.5764,26.1242822 24.7092,24.8801168 24.9204,23.6614891 C27.214,22.4065499 34.2204,19.2267056 46.422,19.2267056 C58.908,19.2267056 65.8608,22.5529927 67.9312,23.7329148 C68.136,24.928399 68.2672,26.1490219 68.2672,27.3991727 C68.2672,30.4852457 67.6108,33.4204866 66.4452,36.0839903 C64.642,36.6996886 58.7752,38.2957956 46.422,38.2957956 C34.0312,38.2957956 28.1672,36.6873187 26.3968,36.0839903 C25.2312,33.4204866 24.5764,30.4852457 24.5764,27.3991727 Z M61.9532,42.7006521 C57.9908,46.7020925 52.4936,49.1912214 46.422,49.1912214 C40.3484,49.1912214 34.8516,46.7020925 30.8892,42.7006521 C34.4752,43.2696642 39.5064,43.743708 46.422,43.743708 C53.336,43.743708 58.3688,43.2696642 61.9532,42.7006521 Z M16.3844,111.844808 L8.192,111.844808 C6.6876,111.844808 5.4608,110.620993 5.4608,109.120253 L5.4608,100.947786 L16.3844,100.947786 L16.3844,111.844808 Z M38.2296,158.152263 L21.8452,158.152263 L21.8452,149.979796 C21.8452,148.478657 23.072,147.256837 24.5764,147.256837 L35.4984,147.256837 C37.0032,147.256837 38.2296,148.478657 38.2296,149.979796 L38.2296,158.152263 Z M70.9968,158.152263 L54.614,158.152263 L54.614,149.979796 C54.614,148.478657 55.8392,147.256837 57.3436,147.256837 L68.2672,147.256837 C69.772,147.256837 70.9968,148.478657 70.9968,149.979796 L70.9968,158.152263 Z M87.3812,109.120253 C87.3812,110.620993 86.1564,111.844808 84.6516,111.844808 L76.4592,111.844808 L76.4592,100.947786 L87.3812,100.947786 L87.3812,109.120253 Z M87.3812,95.5002725 L76.4592,95.5002725 L76.4592,73.7082238 C76.4592,72.2038929 75.236,70.9832701 73.728,70.9832701 C72.222,70.9832701 70.9984,72.2038929 70.9984,73.7082238 L70.9984,142.309304 C70.1408,142.004049 69.2312,141.808925 68.2672,141.808925 L57.3436,141.808925 C56.3796,141.808925 55.4704,142.004049 54.614,142.309304 L54.614,111.844808 C54.614,108.558822 52.4312,103.672341 46.422,103.672341 C40.4108,103.672341 38.2296,108.558822 38.2296,111.844808 L38.2296,142.309304 C37.372,142.004049 36.4624,141.808925 35.4984,141.808925 L24.5764,141.808925 C23.6124,141.808925 22.7032,142.004049 21.8452,142.309304 L21.8452,76.4311825 C21.8452,74.9284477 20.622,73.7082238 19.1156,73.7082238 C17.608,73.7082238 16.3844,74.9284477 16.3844,76.4311825 L16.3844,95.5002725 L5.4608,95.5002725 L5.4608,68.2603114 C5.4608,57.7455572 14.036,49.1912214 24.5764,49.1912214 L30.1064,49.1912214 C34.6656,52.5969148 40.3016,54.6403309 46.422,54.6403309 C52.5408,54.6403309 58.1764,52.5969148 62.7376,49.1912214 L68.2672,49.1912214 C78.808,49.1912214 87.3812,57.7455572 87.3812,68.2603114 L87.3812,95.5002725 Z" id="Fill-5" fill="#000000" mask="url(#mask-2)"></path>
                </g>
                <path d="M106.4952,30.1237275 C108.0032,30.1237275 109.2264,28.9031046 109.2264,27.3991727 C110.7344,27.3991727 111.958,26.1785499 111.958,24.6762141 C111.958,23.1718832 110.7344,21.9512603 109.2264,21.9512603 C109.2264,20.4489246 108.0032,19.2283017 106.4952,19.2283017 C104.9892,19.2283017 103.7656,20.4489246 103.7656,21.9512603 C102.258,21.9512603 101.0344,23.1718832 101.0344,24.6762141 C101.0344,26.1785499 102.258,27.3991727 103.7656,27.3991727 C103.7656,28.9031046 104.9892,30.1237275 106.4952,30.1237275 Z" id="Fill-7" fill="#000000"></path>
                <path d="M120.5,162.5 L120.5,54.5" id="Line" stroke="#000000" stroke-width="5" stroke-linecap="round"></path>
                <use id="Rectangle-4" stroke="#B8352B" mask="url(#mask-4)" stroke-width="16" xlink:href="#path-3"></use>
            </g>
        </g>
    </g>
</svg>