<?xml version="1.0" encoding="UTF-8" standalone="no"?>
<svg width="1366px" height="2909px" viewBox="0 0 1366 2909" version="1.1" xmlns="http://www.w3.org/2000/svg" xmlns:xlink="http://www.w3.org/1999/xlink">
    <!-- Generator: Sketch 41.2 (35397) - http://www.bohemiancoding.com/sketch -->
    <title>Group 4</title>
    <desc>Created with Sketch.</desc>
    <defs></defs>
    <g id="Page-1" stroke="none" stroke-width="1" fill="none" fill-rule="evenodd">
        <g id="2sqrs-Home---Desktop-Copy-4" transform="translate(0.000000, -1256.000000)">
            <g id="Group-4" transform="translate(0.000000, 1252.000000)">
                <rect id="Rectangle" fill="#222222" x="0" y="667" width="1366" height="2246"></rect>
                <g id="techhumannetwork" transform="translate(56.000000, 0.000000)">
                    <g id="Group-3" transform="translate(808.000000, 123.000000)">
                        <g id="Group-2">
                            <rect id="Rectangle" fill="#222222" x="0" y="0" width="455.333333" height="455.329987"></rect>
                            <rect id="Rectangle" fill="#FFFFFF" x="114" y="114" width="227.660004" height="227.660004"></rect>
                        </g>
                    </g>
                    <g id="Group" transform="translate(399.000000, 358.000000)">
                        <rect id="Rectangle" fill="#B8352B" x="0" y="0" width="455.333333" height="455.329987"></rect>
                        <rect id="Rectangle" fill="#FFFFFF" x="114" y="114" width="227.660004" height="227.660004"></rect>
                    </g>
                    <g id="Group-2" transform="translate(0.000000, 62.000000)">
                        <rect id="Rectangle" fill="#222222" x="0" y="0" width="455.333333" height="455.329987"></rect>
                        <rect id="Rectangle" fill="#FFFFFF" x="114" y="114" width="227.660004" height="227.660004"></rect>
                    </g>
                    <text id="tech" transform="translate(38.500000, 56.500000) rotate(270.000000) translate(-38.500000, -56.500000) " font-family="Yantramanav-Bold, Yantramanav" font-size="60" font-weight="bold" letter-spacing="1.52395272">
                        <tspan x="-17.4873586" y="74" fill="#FFFFFF">te</tspan>
                        <tspan x="33.0214844" y="74" fill="#000000">ch</tspan>
                    </text>
                    <text id="human" font-family="Yantramanav-Bold, Yantramanav" font-size="60" font-weight="bold" letter-spacing="1.52395284" fill="#FFFFFF">
                        <tspan x="777.620782" y="793">human</tspan>
                    </text>
                    <text id="network" transform="translate(1225.500000, 147.000000) rotate(90.000000) translate(-1225.500000, -147.000000) " font-family="Yantramanav-Bold, Yantramanav" font-size="60" font-weight="bold" letter-spacing="1.52395284">
                        <tspan x="1122.19742" y="164.5" fill="#000000">net</tspan>
                        <tspan x="1204.69896" y="164.5" fill="#FFFFFF">work</tspan>
                    </text>
                    <path d="M1146.5,64.5 L457.5,578.5" id="Line" stroke="#B8352B" stroke-width="3" stroke-linecap="square" stroke-dasharray="3,6,3,6" transform="translate(802.000000, 321.500000) scale(-1, 1) translate(-802.000000, -321.500000) "></path>
                    <path d="M624.5,174.5 L110.5,699.5" id="Line" stroke="#000000" stroke-width="3" stroke-linecap="square" stroke-dasharray="3,6,3,6" transform="translate(367.500000, 437.000000) scale(-1, 1) translate(-367.500000, -437.000000) "></path>
                    <path d="M1148.5,579.5 L623.5,697.5" id="Line" stroke="#000000" stroke-width="3" stroke-linecap="square" stroke-dasharray="3,6,3,6"></path>
                    <path d="M457.5,62.5 L110,173.788235" id="Line" stroke="#FFFFFF" stroke-width="3" stroke-linecap="square" stroke-dasharray="3,6,3,6"></path>
                    <path d="M119,518.5 L119,665.554412" id="Line" stroke="#000000" stroke-width="6" stroke-linecap="square" transform="translate(119.000000, 592.000000) scale(-1, 1) translate(-119.000000, -592.000000) "></path>
                    <path d="M1147,577.041867 L1147,665.5631" id="Line" stroke="#000000" stroke-width="6" stroke-linecap="square" transform="translate(1147.000000, 621.500000) scale(-1, 1) translate(-1147.000000, -621.500000) "></path>
                    <path d="M118,670.402761 L118,1080.00122" id="Line" stroke="#FFFFFF" stroke-width="6" stroke-linecap="square" transform="translate(118.500000, 875.500000) scale(-1, 1) translate(-118.500000, -875.500000) "></path>
                    <path d="M621,817.515232 L621,1049.8275" id="Line" stroke="#FFFFFF" stroke-width="6" stroke-linecap="square" transform="translate(621.500000, 933.500000) scale(-1, 1) translate(-621.500000, -933.500000) "></path>
                    <path d="M1146,669.89088 L1146,1677.0839" id="Line" stroke="#FFFFFF" stroke-width="6" stroke-linecap="square" transform="translate(1146.500000, 1173.500000) scale(-1, 1) translate(-1146.500000, -1173.500000) "></path>
                    <circle id="Oval" fill="#FFFFFF" cx="118.5" cy="1081.5" r="8.5"></circle>
                    <circle id="Oval" fill="#FFFFFF" cx="622.5" cy="1053.5" r="8.5"></circle>
                    <circle id="Oval" fill="#FFFFFF" cx="1146.5" cy="1686.5" r="8.5"></circle>
                </g>
            </g>
        </g>
    </g>
</svg>