<?xml version="1.0" encoding="UTF-8" standalone="no"?>
<svg width="480px" height="547px" viewBox="0 0 480 547" version="1.1" xmlns="http://www.w3.org/2000/svg" xmlns:xlink="http://www.w3.org/1999/xlink">
    <!-- Generator: Sketch 41.2 (35397) - http://www.bohemiancoding.com/sketch -->
    <title>techhumannetwork_mobile1</title>
    <desc>Created with Sketch.</desc>
    <defs></defs>
    <g id="Page-1" stroke="none" stroke-width="1" fill="none" fill-rule="evenodd">
        <g id="techhumannetwork_mobile1">
            <g id="Group-2" transform="translate(283.918883, 479.278481) rotate(90.000000) translate(-283.918883, -479.278481) translate(215.918883, 364.778481)">
                <rect id="Rectangle" fill="#B8352B" x="0" y="0" width="136" height="228.270485"></rect>
                <rect id="Rectangle" fill="#FFFFFF" x="57.1803797" y="57.1515957" width="78.8196203" height="114.132741"></rect>
            </g>
            <g id="Group" transform="translate(166.106383, 320.631329) rotate(90.000000) translate(-166.106383, -320.631329) translate(51.606383, 206.131329)">
                <rect id="Rectangle" fill="#222222" x="0" y="0" width="228.387131" height="228.270485"></rect>
                <rect id="Rectangle" fill="#FFFFFF" x="57.1803797" y="57.1515957" width="114.190223" height="114.132741"></rect>
            </g>
            <g id="Group-2" transform="translate(314.500000, 120.500000) rotate(90.000000) translate(-314.500000, -120.500000) translate(200.000000, 6.000000)">
                <rect id="Rectangle" fill="#B8352B" x="0" y="0" width="228.387131" height="228.270485"></rect>
                <rect id="Rectangle" fill="#FFFFFF" x="57.1803797" y="57.1515957" width="114.190223" height="114.132741"></rect>
            </g>
            <text id="network" font-family="Yantramanav-Bold, Yantramanav" font-size="50" font-weight="bold" letter-spacing="1.26996064">
                <tspan x="135.337833" y="47" fill="#000000">net</tspan>
                <tspan x="204.089121" y="47" letter-spacing="1.0583005" fill="#FFFFFF">work</tspan>
            </text>
            <text id="tech" transform="translate(79.500000, 201.500000) rotate(270.000000) translate(-79.500000, -201.500000) " font-family="Yantramanav-Bold, Yantramanav" font-size="50" font-weight="bold" letter-spacing="1.26996064">
                <tspan x="33.0555279" y="216" fill="#FFFFFF">te</tspan>
                <tspan x="75.1462305" y="216" letter-spacing="1.0583005" fill="#000000">ch</tspan>
            </text>
            <path d="M471.700015,279.427232 L126.109825,537.110743" id="Line" stroke="#222222" stroke-width="3" stroke-linecap="square" stroke-dasharray="3,6,3,6" transform="translate(298.904920, 408.268987) scale(-1, 1) rotate(90.000000) translate(-298.904920, -408.268987) "></path>
            <path d="M369.477545,58.5224549 L60.4023869,373.622854" id="Line" stroke="#444444" stroke-width="3" stroke-linecap="square" stroke-dasharray="3,6,3,6" transform="translate(215.151596, 216.174051) scale(-1, 1) rotate(90.000000) translate(-215.151596, -216.174051) "></path>
            <path d="M217.138936,419.700815 L7.57168904,533.76265" id="Line" stroke="#444444" stroke-width="3" stroke-linecap="square" stroke-dasharray="3,6,3,6" transform="translate(112.167170, 477.095481) rotate(90.000000) translate(-112.167170, -477.095481) "></path>
            <path d="M487.950057,120.625564 L313.650215,176.417671" id="Line" stroke="#FFFFFF" stroke-width="3" stroke-linecap="square" stroke-dasharray="3,6,3,6" transform="translate(400.925532, 148.449367) rotate(90.000000) translate(-400.925532, -148.449367) "></path>
        </g>
    </g>
</svg>